<?xml version="1.0" encoding="UTF-8"?>
<svg xmlns="http://www.w3.org/2000/svg" style="display: none;">
    <!-- SEVERE Category Icons -->
    <symbol id="tornado-warning" viewBox="0 0 24 24">
        <path d="M12 2L9 9l6 0l-3 7l-3-7l-3 7l12 0l-3-7l3-7z" fill="currentColor"/>
        <circle cx="12" cy="19" r="3" fill="red"/>
    </symbol>
    
    <symbol id="severe-thunderstorm-warning" viewBox="0 0 24 24">
        <path d="M19 16.9A5 5 0 0 0 18 7h-1.26a8 8 0 1 0-11.62 9" fill="currentColor"/>
        <path d="M13 11l-4 6h4l-2 4l6-7h-4l3-3" fill="yellow"/>
        <circle cx="19" cy="19" r="3" fill="red"/>
    </symbol>

    <symbol id="flash-flood-warning" viewBox="0 0 24 24">
        <path d="M12 2L8 7h8l-4 5h8l-8 10l3-8H7l5-7H4z" fill="#1E90FF"/>
        <circle cx="19" cy="19" r="3" fill="red"/>
    </symbol>
    
    <symbol id="severe-weather-statement" viewBox="0 0 24 24">
        <circle cx="12" cy="12" r="10" fill="currentColor"/>
        <path d="M12 6v8m0 2v2" stroke="white" stroke-width="2"/>
    </symbol>

    <!-- WINTER Category Icons -->
    <symbol id="winter-storm-warning" viewBox="0 0 24 24">
        <path d="M12 2v20M2 12h20M7 7l10 10M17 7L7 17" stroke="#B0E2FF" stroke-width="2"/>
        <circle cx="12" cy="12" r="3" fill="red"/>
    </symbol>

    <symbol id="ice-storm-warning" viewBox="0 0 24 24">
        <path d="M12 2v20M2 12h20M7 7l10 10M17 7L7 17" stroke="#B0E2FF" stroke-width="2"/>
        <circle cx="12" cy="12" r="3" fill="#B0E2FF"/>
    </symbol>

    <symbol id="blizzard-warning" viewBox="0 0 24 24">
        <path d="M12 2v20M2 12h20M7 7l10 10M17 7L7 17" stroke="white" stroke-width="2"/>
        <circle cx="12" cy="12" r="3" fill="red"/>
    </symbol>

    <symbol id="winter-weather-advisory" viewBox="0 0 24 24">
        <path d="M12 2v20M2 12h20M7 7l10 10M17 7L7 17" stroke="#B0E2FF" stroke-width="1"/>
    </symbol>

    <symbol id="winter-storm-watch" viewBox="0 0 24 24">
        <path d="M12 2v20M2 12h20M7 7l10 10M17 7L7 17" stroke="#B0E2FF" stroke-width="1"/>
        <circle cx="12" cy="12" r="5" fill="none" stroke="#B0E2FF"/>
    </symbol>

    <!-- FLOOD Category Icons -->
    <symbol id="flood-warning" viewBox="0 0 24 24">
        <path d="M12 2c-3 4-6 7-6 11a6 6 0 0 0 12 0c0-4-3-7-6-11z" fill="#1E90FF"/>
        <circle cx="19" cy="19" r="3" fill="red"/>
    </symbol>

    <symbol id="flood-watch" viewBox="0 0 24 24">
        <path d="M12 2c-3 4-6 7-6 11a6 6 0 0 0 12 0c0-4-3-7-6-11z" fill="#1E90FF"/>
        <circle cx="12" cy="12" r="5" fill="none" stroke="#1E90FF"/>
    </symbol>

    <symbol id="flood-advisory" viewBox="0 0 24 24">
        <path d="M12 2c-3 4-6 7-6 11a6 6 0 0 0 12 0c0-4-3-7-6-11z" fill="#1E90FF"/>
    </symbol>

    <!-- HEAT Category Icons -->
    <symbol id="excessive-heat-warning" viewBox="0 0 24 24">
        <path d="M12 2c-1.1 0-2 .9-2 2v10c-1.2.9-2 2.3-2 4a4 4 0 1 0 8 0c0-1.7-.8-3.1-2-4V4c0-1.1-.9-2-2-2z" fill="#FF4500"/>
        <circle cx="12" cy="18" r="2" fill="red"/>
    </symbol>

    <symbol id="heat-advisory" viewBox="0 0 24 24">
        <path d="M12 2c-1.1 0-2 .9-2 2v10c-1.2.9-2 2.3-2 4a4 4 0 1 0 8 0c0-1.7-.8-3.1-2-4V4c0-1.1-.9-2-2-2z" fill="#FF8C00"/>
    </symbol>

    <!-- WIND Category Icons -->
    <symbol id="high-wind-warning" viewBox="0 0 24 24">
        <path d="M4 10h16c1.1 0 2-.9 2-2s-.9-2-2-2h-2M4 14h10c1.1 0 2 .9 2 2s-.9 2-2 2h-2M4 18h6" stroke="red" stroke-width="2" fill="none"/>
    </symbol>

    <symbol id="wind-advisory" viewBox="0 0 24 24">
        <path d="M4 10h16c1.1 0 2-.9 2-2s-.9-2-2-2h-2M4 14h10c1.1 0 2 .9 2 2s-.9 2-2 2h-2M4 18h6" stroke="currentColor" stroke-width="2" fill="none"/>
    </symbol>

    <!-- FIRE Category Icons -->
    <symbol id="red-flag-warning" viewBox="0 0 24 24">
        <path d="M4 2v20M5 4c4-1 8 1 12-1v8c-4 2-8 0-12 1z" fill="red" stroke="currentColor"/>
        <circle cx="19" cy="19" r="3" fill="red"/>
    </symbol>

    <symbol id="fire-weather-watch" viewBox="0 0 24 24">
        <path d="M4 2v20M5 4c4-1 8 1 12-1v8c-4 2-8 0-12 1z" fill="orange" stroke="currentColor"/>
    </symbol>

    <!-- MARINE Category Icons -->
    <symbol id="hurricane-warning" viewBox="0 0 24 24">
        <path d="M12 2A10 10 0 0 0 2 12a10 10 0 0 0 20 0A10 10 0 0 0 12 2z" fill="none" stroke="red" stroke-width="2"/>
        <path d="M12 5a7 7 0 0 0-7 7 7 7 0 0 0 14 0 7 7 0 0 0-7-7z" fill="none" stroke="red"/>
        <circle cx="12" cy="12" r="3" fill="red"/>
    </symbol>

    <symbol id="tropical-storm-warning" viewBox="0 0 24 24">
        <path d="M12 2A10 10 0 0 0 2 12a10 10 0 0 0 20 0A10 10 0 0 0 12 2z" fill="none" stroke="currentColor" stroke-width="2"/>
        <path d="M12 5a7 7 0 0 0-7 7 7 7 0 0 0 14 0 7 7 0 0 0-7-7z" fill="none" stroke="currentColor"/>
    </symbol>

    <!-- FOG Category Icons -->
    <symbol id="dense-fog-advisory" viewBox="0 0 24 24">
        <path d="M4 8h16M4 12h16M4 16h16" stroke="currentColor" stroke-width="2" fill="none"/>
    </symbol>

    <symbol id="dense-smoke-advisory" viewBox="0 0 24 24">
        <path d="M4 8c4-2 8 2 12-2M4 12c4-2 8 2 12-2M4 16c4-2 8 2 12-2" stroke="currentColor" stroke-width="2" fill="none"/>
    </symbol>

    <!-- Category Icons -->
    <symbol id="severe-category" viewBox="0 0 24 24">
        <circle cx="12" cy="12" r="10" fill="red"/>
        <path d="M12 6v8m0 2v2" stroke="white" stroke-width="2"/>
    </symbol>

    <symbol id="winter-category" viewBox="0 0 24 24">
        <circle cx="12" cy="12" r="10" fill="#B0E2FF"/>
        <path d="M12 2v20M2 12h20M7 7l10 10M17 7L7 17" stroke="white" stroke-width="1"/>
    </symbol>

    <symbol id="flood-category" viewBox="0 0 24 24">
        <circle cx="12" cy="12" r="10" fill="#1E90FF"/>
        <path d="M7 14c2.5-2 7.5-2 10 0" stroke="white" stroke-width="2" fill="none"/>
    </symbol>

    <symbol id="heat-category" viewBox="0 0 24 24">
        <circle cx="12" cy="12" r="10" fill="#FF4500"/>
        <path d="M12 5v8" stroke="white" stroke-width="2"/>
        <circle cx="12" cy="16" r="2" fill="white"/>
    </symbol>

    <symbol id="wind-category" viewBox="0 0 24 24">
        <circle cx="12" cy="12" r="10" fill="#666666"/>
        <path d="M6 12h12M8 8h8M10 16h4" stroke="white" stroke-width="2"/>
    </symbol>

    <symbol id="fire-category" viewBox="0 0 24 24">
        <circle cx="12" cy="12" r="10" fill="#FF4500"/>
        <path d="M12 4c-3 4-6 6-6 10a6 6 0 0 0 12 0c0-4-3-6-6-10z" fill="white"/>
    </symbol>

    <symbol id="marine-category" viewBox="0 0 24 24">
        <circle cx="12" cy="12" r="10" fill="#000080"/>
        <path d="M7 14c2.5-2 7.5-2 10 0" stroke="white" stroke-width="2" fill="none"/>
    </symbol>

    <symbol id="fog-category" viewBox="0 0 24 24">
        <circle cx="12" cy="12" r="10" fill="#808080"/>
        <path d="M7 10h10M7 14h10" stroke="white" stroke-width="2"/>
    </symbol>

    <!-- Default Icon -->
    <symbol id="default-alert" viewBox="0 0 24 24">
        <circle cx="12" cy="12" r="10" fill="currentColor"/>
        <path d="M12 6v8m0 2v2" stroke="white" stroke-width="2"/>
    </symbol>
</svg>